<svg width="245" height="312" viewBox="0 0 245 312" fill="none" xmlns="http://www.w3.org/2000/svg">
<path d="M109.879 0.060236C70.5384 1.37389 35.8403 8.3644 17.0377 18.7798C14.154 20.3984 12.044 21.7824 8.43355 24.4566C5.31542 26.779 2.64273 29.8051 1.35327 32.5262L0.509264 34.2856L0.321707 55.3978C0.110705 79.8177 0.13415 81.7178 0.860934 84.0167C2.97095 90.7491 8.97278 96.3322 19.8511 101.751C38.2083 110.9 66.8811 116.928 102.142 119.11C104.392 119.251 112.387 119.415 119.913 119.485C134.566 119.626 134.519 119.626 135.433 118.43C135.902 117.867 135.902 117.374 135.902 95.2531V72.6864L135.175 71.9592C134.777 71.5604 134.331 71.232 134.191 71.2086C134.027 71.2086 128.048 71.2086 120.898 71.232C104.557 71.2555 95.507 70.8567 82.5655 69.5665C45.5464 65.907 17.5301 56.6177 10.4967 45.6862C8.62111 42.7539 8.29289 39.7044 9.53545 36.6079C11.5751 31.4706 16.1 27.7173 25.0558 23.706C43.6474 15.3549 72.9532 9.86571 106.831 8.3644C113.606 8.05944 132.104 8.05944 139.067 8.3644C181.408 10.1941 214.77 17.9822 228.907 29.3359C233.197 32.8077 235.331 36.9129 234.651 40.3847C233.08 48.2197 222.202 55.2336 202.368 61.1451C198.452 62.318 191.396 64.1242 188.418 64.6872C187.316 64.8983 186.707 65.1564 186.261 65.6255L185.605 66.2589V89.5293C185.605 105.105 185.675 112.94 185.839 113.245C186.191 113.855 187.293 113.832 190.809 113.081C203.54 110.43 215.59 106.536 224.406 102.197C234.721 97.1297 241.075 91.3121 243.232 84.955L243.865 83.0784L243.935 61.8488C244.005 37.4993 243.982 37.1709 242.388 33.8164C240.653 30.2273 238.449 27.4358 235.214 24.785C219.459 11.93 185.159 2.99249 141.88 0.482485C135.926 0.15407 115.552 -0.127424 109.879 0.060236Z" fill="url(#paint0_linear_17_157)"/>
<path d="M109.879 0.060236C70.5384 1.37389 35.8403 8.3644 17.0377 18.7798C14.154 20.3984 12.044 21.7824 8.43355 24.4566C5.31542 26.779 2.64273 29.8051 1.35327 32.5262L0.509264 34.2856L0.321707 55.3978C0.110705 79.8177 0.13415 81.7178 0.860934 84.0167C2.97095 90.7491 8.97278 96.3322 19.8511 101.751C38.2083 110.9 66.8811 116.928 102.142 119.11C104.392 119.251 112.387 119.415 119.913 119.485C134.566 119.626 134.519 119.626 135.433 118.43C135.902 117.867 135.902 117.374 135.902 95.2531V72.6864L135.175 71.9592C134.777 71.5604 134.331 71.232 134.191 71.2086C134.027 71.2086 128.048 71.2086 120.898 71.232C104.557 71.2555 95.507 70.8567 82.5655 69.5665C45.5464 65.907 17.5301 56.6177 10.4967 45.6862C8.62111 42.7539 8.29289 39.7044 9.53545 36.6079C11.5751 31.4706 16.1 27.7173 25.0558 23.706C43.6474 15.3549 72.9532 9.86571 106.831 8.3644C113.606 8.05944 132.104 8.05944 139.067 8.3644C181.408 10.1941 214.77 17.9822 228.907 29.3359C233.197 32.8077 235.331 36.9129 234.651 40.3847C233.08 48.2197 222.202 55.2336 202.368 61.1451C198.452 62.318 191.396 64.1242 188.418 64.6872C187.316 64.8983 186.707 65.1564 186.261 65.6255L185.605 66.2589V89.5293C185.605 105.105 185.675 112.94 185.839 113.245C186.191 113.855 187.293 113.832 190.809 113.081C203.54 110.43 215.59 106.536 224.406 102.197C234.721 97.1297 241.075 91.3121 243.232 84.955L243.865 83.0784L243.935 61.8488C244.005 37.4993 243.982 37.1709 242.388 33.8164C240.653 30.2273 238.449 27.4358 235.214 24.785C219.459 11.93 185.159 2.99249 141.88 0.482485C135.926 0.15407 115.552 -0.127424 109.879 0.060236Z" fill="#0F1F8F"/>
<path d="M241.801 108.108C240.16 110.266 235.284 115.052 232.963 116.764C226.633 121.479 217.231 125.772 206.47 128.822C185.229 134.85 163.473 138.228 137.426 139.518C131.869 139.8 114.216 139.917 106.057 139.753C101.462 139.659 101.438 139.659 100.852 140.199L100.266 140.738V163.68C100.266 186.505 100.266 186.622 100.735 187.068C101.368 187.654 102.376 187.748 111.988 188.077C124.578 188.522 141.364 188.03 154.892 186.88C185.792 184.206 211.276 178.013 227.359 169.263C231.955 166.753 235.542 164.126 238.378 161.17C240.512 158.918 241.426 157.605 242.481 155.329C244.099 151.81 244.052 152.514 243.982 129.291C243.958 117.796 243.864 107.991 243.771 107.498C243.7 106.982 243.513 106.536 243.372 106.489C243.231 106.443 242.528 107.17 241.801 108.108Z" fill="url(#paint1_linear_17_157)"/>
<path d="M241.801 108.108C240.16 110.266 235.284 115.052 232.963 116.764C226.633 121.479 217.231 125.772 206.47 128.822C185.229 134.85 163.473 138.228 137.426 139.518C131.869 139.8 114.216 139.917 106.057 139.753C101.462 139.659 101.438 139.659 100.852 140.199L100.266 140.738V163.68C100.266 186.505 100.266 186.622 100.735 187.068C101.368 187.654 102.376 187.748 111.988 188.077C124.578 188.522 141.364 188.03 154.892 186.88C185.792 184.206 211.276 178.013 227.359 169.263C231.955 166.753 235.542 164.126 238.378 161.17C240.512 158.918 241.426 157.605 242.481 155.329C244.099 151.81 244.052 152.514 243.982 129.291C243.958 117.796 243.864 107.991 243.771 107.498C243.7 106.982 243.513 106.536 243.372 106.489C243.231 106.443 242.528 107.17 241.801 108.108Z" fill="#0F1F8F"/>
<path d="M0.393277 107.569C0.0650523 108.202 0.0650524 148.433 0.416722 150.521C1.6124 157.98 7.77834 164.29 19.6179 170.202C27.1671 173.955 36.5449 177.31 45.9462 179.632C48.9471 180.359 49.9318 180.359 50.3304 179.609C50.471 179.327 50.5648 171.07 50.5648 156.62V134.076L50.0021 133.56C49.2285 132.857 48.7361 132.692 41.5386 130.957C31.0823 128.4 26.5341 126.969 20.5791 124.341C15.1868 121.972 12.3266 120.189 7.98934 116.459C5.36354 114.231 3.53486 111.885 2.29229 109.164C1.33106 107.1 0.86217 106.701 0.393277 107.569Z" fill="url(#paint2_linear_17_157)"/>
<path d="M0.393277 107.569C0.0650523 108.202 0.0650524 148.433 0.416722 150.521C1.6124 157.98 7.77834 164.29 19.6179 170.202C27.1671 173.955 36.5449 177.31 45.9462 179.632C48.9471 180.359 49.9318 180.359 50.3304 179.609C50.471 179.327 50.5648 171.07 50.5648 156.62V134.076L50.0021 133.56C49.2285 132.857 48.7361 132.692 41.5386 130.957C31.0823 128.4 26.5341 126.969 20.5791 124.341C15.1868 121.972 12.3266 120.189 7.98934 116.459C5.36354 114.231 3.53486 111.885 2.29229 109.164C1.33106 107.1 0.86217 106.701 0.393277 107.569Z" fill="#0F1F8F"/>
<path d="M232.846 185.59C235.542 183.549 240.747 178.435 242.107 176.488C243.115 175.081 243.63 175.034 243.841 176.371C243.912 176.934 244.052 186.458 244.123 197.554C244.263 217.282 244.24 217.775 243.771 220.05C242.693 225.258 239.645 229.574 233.971 233.82C231.126 235.965 227.613 238.031 223.521 239.984C222.335 236.776 220.284 233.487 216.792 230.821C211.254 226.541 204.758 226 200.799 226C198.638 226 196.439 226.154 194.244 226.519C192.817 226.756 190.918 227.119 189.098 227.725L188.682 227.863C187.646 227.453 186.614 227.132 185.605 226.88C185.605 226.847 185.605 226.815 185.605 226.783V203.324L186.191 202.879C186.59 202.574 187.762 202.222 189.661 201.894C194.701 200.979 204.572 198.445 209.284 196.827C220.303 193.073 227.547 189.602 232.846 185.59Z" fill="url(#paint3_linear_17_157)"/>
<path d="M232.846 185.59C235.542 183.549 240.747 178.435 242.107 176.488C243.115 175.081 243.63 175.034 243.841 176.371C243.912 176.934 244.052 186.458 244.123 197.554C244.263 217.282 244.24 217.775 243.771 220.05C242.693 225.258 239.645 229.574 233.971 233.82C231.126 235.965 227.613 238.031 223.521 239.984C222.335 236.776 220.284 233.487 216.792 230.821C211.254 226.541 204.758 226 200.799 226C198.638 226 196.439 226.154 194.244 226.519C192.817 226.756 190.918 227.119 189.098 227.725L188.682 227.863C187.646 227.453 186.614 227.132 185.605 226.88C185.605 226.847 185.605 226.815 185.605 226.783V203.324L186.191 202.879C186.59 202.574 187.762 202.222 189.661 201.894C194.701 200.979 204.572 198.445 209.284 196.827C220.303 193.073 227.547 189.602 232.846 185.59Z" fill="#0F1F8F"/>
<path d="M0.0640788 196.029C0.157857 185.379 0.32197 176.489 0.439193 176.254C0.884641 175.41 1.25976 175.785 2.43199 178.201C3.79178 181.016 5.19845 182.799 7.91803 185.168C13.1462 189.742 17.1083 191.971 24.6575 194.669C31.4565 197.085 32.8631 197.507 42.4754 199.9C55.4638 203.114 61.6766 204.333 72.2501 205.741C88.4504 207.899 98.8598 208.509 119.468 208.579L119.685 208.58C134.619 208.626 135.271 208.628 135.598 209.048C135.855 209.424 135.902 213.341 135.855 232.671L135.803 249.931C133.464 248.134 130.874 246.668 128.076 245.55C123.032 243.535 117.745 242.598 112.371 242.598C107.2 242.598 101.879 243.322 96.8511 245.317C96.5994 245.221 96.3463 245.127 96.0919 245.037C91.4189 243.37 86.5663 242.598 81.6519 242.598C76.7071 242.598 71.8396 243.265 67.1053 244.644C62.8816 245.875 58.7586 247.624 55.0121 250.1C54.9279 250.04 54.8433 249.981 54.7582 249.922C47.0714 244.5 37.9323 242.598 28.8556 242.598C28.4763 242.598 28.0965 242.601 27.7164 242.608C13.3729 236.976 4.02907 230.055 1.25976 222.584C-0.0296999 219.112 -0.100034 217.376 0.0640788 196.029Z" fill="url(#paint4_linear_17_157)"/>
<path d="M0.0640788 196.029C0.157857 185.379 0.32197 176.489 0.439193 176.254C0.884641 175.41 1.25976 175.785 2.43199 178.201C3.79178 181.016 5.19845 182.799 7.91803 185.168C13.1462 189.742 17.1083 191.971 24.6575 194.669C31.4565 197.085 32.8631 197.507 42.4754 199.9C55.4638 203.114 61.6766 204.333 72.2501 205.741C88.4504 207.899 98.8598 208.509 119.468 208.579L119.685 208.58C134.619 208.626 135.271 208.628 135.598 209.048C135.855 209.424 135.902 213.341 135.855 232.671L135.803 249.931C133.464 248.134 130.874 246.668 128.076 245.55C123.032 243.535 117.745 242.598 112.371 242.598C107.2 242.598 101.879 243.322 96.8511 245.317C96.5994 245.221 96.3463 245.127 96.0919 245.037C91.4189 243.37 86.5663 242.598 81.6519 242.598C76.7071 242.598 71.8396 243.265 67.1053 244.644C62.8816 245.875 58.7586 247.624 55.0121 250.1C54.9279 250.04 54.8433 249.981 54.7582 249.922C47.0714 244.5 37.9323 242.598 28.8556 242.598C28.4763 242.598 28.0965 242.601 27.7164 242.608C13.3729 236.976 4.02907 230.055 1.25976 222.584C-0.0296999 219.112 -0.100034 217.376 0.0640788 196.029Z" fill="#0F1F8F"/>
<path d="M30.4599 312C23.6112 312 18.1389 310.659 14.043 307.976C10.0143 305.294 8 301.304 8 296.006C8 291.446 9.41004 287.959 12.2301 285.544C15.0502 283.063 19.2467 281.554 24.8198 281.018L38.2152 279.609V278.402C38.2152 276.122 37.3087 274.479 35.4958 273.473C33.75 272.467 31.2321 271.965 27.942 271.965C25.3905 271.965 22.8726 272.266 20.3882 272.87C17.971 273.473 15.7888 274.178 13.8416 274.982C13.0359 274.446 12.3308 273.641 11.7265 272.568C11.1894 271.428 10.9208 270.254 10.9208 269.047C10.9208 266.231 12.4651 264.185 15.5538 262.911C17.501 262.107 19.7503 261.536 22.3018 261.201C24.9205 260.799 27.4384 260.598 29.8556 260.598C36.8387 260.598 42.4117 262.073 46.5747 265.024C50.7377 267.907 52.8191 272.4 52.8191 278.503V301.337C52.8191 303.014 52.3827 304.389 51.5098 305.462C50.6369 306.467 49.529 307.339 48.1861 308.077C46.1718 309.284 43.6539 310.223 40.6324 310.893C37.678 311.631 34.2872 312 30.4599 312ZM30.4599 300.834C32.0043 300.834 33.515 300.7 34.9922 300.432C36.5365 300.097 37.6444 299.728 38.3159 299.325V289.669L29.8556 290.473C27.5727 290.607 25.7598 291.077 24.4169 291.882C23.074 292.686 22.4026 293.893 22.4026 295.503C22.4026 297.112 23.0404 298.42 24.3162 299.426C25.5919 300.365 27.6398 300.834 30.4599 300.834Z" fill="url(#paint5_linear_17_157)"/>
<path d="M30.4599 312C23.6112 312 18.1389 310.659 14.043 307.976C10.0143 305.294 8 301.304 8 296.006C8 291.446 9.41004 287.959 12.2301 285.544C15.0502 283.063 19.2467 281.554 24.8198 281.018L38.2152 279.609V278.402C38.2152 276.122 37.3087 274.479 35.4958 273.473C33.75 272.467 31.2321 271.965 27.942 271.965C25.3905 271.965 22.8726 272.266 20.3882 272.87C17.971 273.473 15.7888 274.178 13.8416 274.982C13.0359 274.446 12.3308 273.641 11.7265 272.568C11.1894 271.428 10.9208 270.254 10.9208 269.047C10.9208 266.231 12.4651 264.185 15.5538 262.911C17.501 262.107 19.7503 261.536 22.3018 261.201C24.9205 260.799 27.4384 260.598 29.8556 260.598C36.8387 260.598 42.4117 262.073 46.5747 265.024C50.7377 267.907 52.8191 272.4 52.8191 278.503V301.337C52.8191 303.014 52.3827 304.389 51.5098 305.462C50.6369 306.467 49.529 307.339 48.1861 308.077C46.1718 309.284 43.6539 310.223 40.6324 310.893C37.678 311.631 34.2872 312 30.4599 312ZM30.4599 300.834C32.0043 300.834 33.515 300.7 34.9922 300.432C36.5365 300.097 37.6444 299.728 38.3159 299.325V289.669L29.8556 290.473C27.5727 290.607 25.7598 291.077 24.4169 291.882C23.074 292.686 22.4026 293.893 22.4026 295.503C22.4026 297.112 23.0404 298.42 24.3162 299.426C25.5919 300.365 27.6398 300.834 30.4599 300.834Z" fill="#0F1F8F"/>
<path d="M104.205 277.095V288.562H89.1985V279.006C89.1985 276.726 88.527 275.049 87.1842 273.976C85.8413 272.903 84.1626 272.367 82.1483 272.367C80.6711 272.367 79.3282 272.602 78.1196 273.071C76.9781 273.473 76.0045 273.909 75.1988 274.379V288.562H60.2927V272.87C60.2927 271.193 60.6284 269.819 61.2998 268.746C62.0384 267.606 63.0792 266.6 64.4221 265.728C66.6379 264.185 69.3572 262.945 72.5802 262.006C75.8031 261.067 79.1604 260.598 82.6519 260.598C85.8748 260.598 88.8963 261.101 91.7164 262.107C94.5365 263.112 96.9873 264.655 99.0688 266.734C99.6059 267.136 100.11 267.572 100.58 268.041C101.117 268.444 101.52 268.913 101.788 269.45C102.46 270.523 103.03 271.73 103.5 273.071C103.97 274.412 104.205 275.753 104.205 277.095ZM133.111 278.604V288.562H118.205V279.006C118.205 276.726 117.567 275.049 116.291 273.976C115.016 272.903 113.337 272.367 111.256 272.367C109.711 272.367 108.234 272.702 106.824 273.373C105.481 273.976 104.306 274.714 103.299 275.586L95.443 266.935C97.6587 265.191 100.177 263.716 102.997 262.509C105.817 261.235 109.275 260.598 113.371 260.598C116.862 260.598 120.119 261.201 123.14 262.408C126.162 263.615 128.579 265.527 130.392 268.142C132.205 270.757 133.111 274.245 133.111 278.604ZM60.2927 283.935H75.1988V310.29C74.5274 310.491 73.5873 310.659 72.3787 310.793C71.1701 310.994 69.8608 311.095 68.4508 311.095C65.6307 311.095 63.5492 310.592 62.2063 309.586C60.9305 308.58 60.2927 306.769 60.2927 304.154V283.935ZM89.1985 283.935H104.205V310.29C103.534 310.491 102.594 310.659 101.385 310.793C100.177 310.994 98.8673 311.095 97.4573 311.095C94.5701 311.095 92.455 310.592 91.1121 309.586C89.8364 308.58 89.1985 306.769 89.1985 304.154V283.935ZM118.205 283.935H133.111V310.29C132.507 310.491 131.6 310.659 130.392 310.793C129.183 310.994 127.874 311.095 126.464 311.095C123.577 311.095 121.462 310.592 120.119 309.586C118.843 308.58 118.205 306.769 118.205 304.154V283.935Z" fill="url(#paint6_linear_17_157)"/>
<path d="M104.205 277.095V288.562H89.1985V279.006C89.1985 276.726 88.527 275.049 87.1842 273.976C85.8413 272.903 84.1626 272.367 82.1483 272.367C80.6711 272.367 79.3282 272.602 78.1196 273.071C76.9781 273.473 76.0045 273.909 75.1988 274.379V288.562H60.2927V272.87C60.2927 271.193 60.6284 269.819 61.2998 268.746C62.0384 267.606 63.0792 266.6 64.4221 265.728C66.6379 264.185 69.3572 262.945 72.5802 262.006C75.8031 261.067 79.1604 260.598 82.6519 260.598C85.8748 260.598 88.8963 261.101 91.7164 262.107C94.5365 263.112 96.9873 264.655 99.0688 266.734C99.6059 267.136 100.11 267.572 100.58 268.041C101.117 268.444 101.52 268.913 101.788 269.45C102.46 270.523 103.03 271.73 103.5 273.071C103.97 274.412 104.205 275.753 104.205 277.095ZM133.111 278.604V288.562H118.205V279.006C118.205 276.726 117.567 275.049 116.291 273.976C115.016 272.903 113.337 272.367 111.256 272.367C109.711 272.367 108.234 272.702 106.824 273.373C105.481 273.976 104.306 274.714 103.299 275.586L95.443 266.935C97.6587 265.191 100.177 263.716 102.997 262.509C105.817 261.235 109.275 260.598 113.371 260.598C116.862 260.598 120.119 261.201 123.14 262.408C126.162 263.615 128.579 265.527 130.392 268.142C132.205 270.757 133.111 274.245 133.111 278.604ZM60.2927 283.935H75.1988V310.29C74.5274 310.491 73.5873 310.659 72.3787 310.793C71.1701 310.994 69.8608 311.095 68.4508 311.095C65.6307 311.095 63.5492 310.592 62.2063 309.586C60.9305 308.58 60.2927 306.769 60.2927 304.154V283.935ZM89.1985 283.935H104.205V310.29C103.534 310.491 102.594 310.659 101.385 310.793C100.177 310.994 98.8673 311.095 97.4573 311.095C94.5701 311.095 92.455 310.592 91.1121 309.586C89.8364 308.58 89.1985 306.769 89.1985 304.154V283.935ZM118.205 283.935H133.111V310.29C132.507 310.491 131.6 310.659 130.392 310.793C129.183 310.994 127.874 311.095 126.464 311.095C123.577 311.095 121.462 310.592 120.119 309.586C118.843 308.58 118.205 306.769 118.205 304.154V283.935Z" fill="#0F1F8F"/>
<path d="M220.533 260.598C224.897 260.598 228.859 261.57 232.418 263.515C235.976 265.393 238.796 268.243 240.878 272.065C242.959 275.821 244 280.481 244 286.047C244 291.68 242.892 296.408 240.676 300.231C238.528 304.053 235.473 306.97 231.511 308.982C227.55 310.927 222.917 311.899 217.612 311.899C213.449 311.899 209.857 311.396 206.835 310.391C203.881 309.385 201.397 308.211 199.382 306.87C197.972 305.864 196.898 304.757 196.159 303.55C195.488 302.343 195.152 300.935 195.152 299.325V267.438H209.958V298.219C210.763 298.688 211.804 299.124 213.08 299.527C214.356 299.929 215.799 300.13 217.411 300.13C220.835 300.13 223.554 298.957 225.569 296.609C227.65 294.262 228.691 290.742 228.691 286.047C228.691 281.286 227.684 277.832 225.669 275.686C223.722 273.473 221.104 272.367 217.814 272.367C215.665 272.367 213.751 272.769 212.073 273.574C210.394 274.379 208.95 275.284 207.742 276.29L207.339 264.219C208.883 263.347 210.763 262.542 212.979 261.805C215.262 261 217.78 260.598 220.533 260.598ZM210.058 270.959H195.152V244.905C195.756 244.704 196.663 244.503 197.872 244.302C199.08 244.101 200.389 244 201.799 244C204.687 244 206.768 244.503 208.044 245.509C209.387 246.515 210.058 248.359 210.058 251.041V270.959Z" fill="url(#paint7_linear_17_157)"/>
<path d="M220.533 260.598C224.897 260.598 228.859 261.57 232.418 263.515C235.976 265.393 238.796 268.243 240.878 272.065C242.959 275.821 244 280.481 244 286.047C244 291.68 242.892 296.408 240.676 300.231C238.528 304.053 235.473 306.97 231.511 308.982C227.55 310.927 222.917 311.899 217.612 311.899C213.449 311.899 209.857 311.396 206.835 310.391C203.881 309.385 201.397 308.211 199.382 306.87C197.972 305.864 196.898 304.757 196.159 303.55C195.488 302.343 195.152 300.935 195.152 299.325V267.438H209.958V298.219C210.763 298.688 211.804 299.124 213.08 299.527C214.356 299.929 215.799 300.13 217.411 300.13C220.835 300.13 223.554 298.957 225.569 296.609C227.65 294.262 228.691 290.742 228.691 286.047C228.691 281.286 227.684 277.832 225.669 275.686C223.722 273.473 221.104 272.367 217.814 272.367C215.665 272.367 213.751 272.769 212.073 273.574C210.394 274.379 208.95 275.284 207.742 276.29L207.339 264.219C208.883 263.347 210.763 262.542 212.979 261.805C215.262 261 217.78 260.598 220.533 260.598ZM210.058 270.959H195.152V244.905C195.756 244.704 196.663 244.503 197.872 244.302C199.08 244.101 200.389 244 201.799 244C204.687 244 206.768 244.503 208.044 245.509C209.387 246.515 210.058 248.359 210.058 251.041V270.959Z" fill="#0F1F8F"/>
<path d="M172.174 298.42V268.142H187.08V300.331C187.08 301.941 186.744 303.316 186.073 304.456C185.401 305.529 184.327 306.501 182.85 307.373C181.037 308.58 178.653 309.619 175.699 310.491C172.812 311.43 169.454 311.899 165.627 311.899C160.054 311.899 155.22 310.961 151.124 309.083C147.095 307.205 143.973 304.389 141.757 300.633C139.608 296.811 138.534 292.083 138.534 286.45C138.534 280.548 139.642 275.72 141.858 271.965C144.141 268.142 147.196 265.292 151.023 263.414C154.85 261.537 159.08 260.598 163.713 260.598C166.131 260.598 168.279 260.866 170.159 261.402C172.039 261.939 173.584 262.576 174.792 263.314V275.586C173.852 274.781 172.61 274.043 171.066 273.373C169.521 272.702 167.742 272.367 165.728 272.367C163.378 272.367 161.296 272.87 159.483 273.876C157.67 274.882 156.26 276.424 155.253 278.503C154.246 280.582 153.742 283.231 153.742 286.45C153.742 291.144 154.783 294.598 156.865 296.811C159.013 299.024 161.901 300.13 165.526 300.13C167.004 300.13 168.313 299.963 169.454 299.627C170.596 299.225 171.502 298.822 172.174 298.42ZM187.08 271.059L172.174 271.16V244.905C172.778 244.704 173.684 244.503 174.893 244.302C176.102 244.101 177.411 244 178.821 244C181.775 244 183.89 244.503 185.166 245.509C186.442 246.515 187.08 248.359 187.08 251.041V271.059Z" fill="url(#paint8_linear_17_157)"/>
<path d="M172.174 298.42V268.142H187.08V300.331C187.08 301.941 186.744 303.316 186.073 304.456C185.401 305.529 184.327 306.501 182.85 307.373C181.037 308.58 178.653 309.619 175.699 310.491C172.812 311.43 169.454 311.899 165.627 311.899C160.054 311.899 155.22 310.961 151.124 309.083C147.095 307.205 143.973 304.389 141.757 300.633C139.608 296.811 138.534 292.083 138.534 286.45C138.534 280.548 139.642 275.72 141.858 271.965C144.141 268.142 147.196 265.292 151.023 263.414C154.85 261.537 159.08 260.598 163.713 260.598C166.131 260.598 168.279 260.866 170.159 261.402C172.039 261.939 173.584 262.576 174.792 263.314V275.586C173.852 274.781 172.61 274.043 171.066 273.373C169.521 272.702 167.742 272.367 165.728 272.367C163.378 272.367 161.296 272.87 159.483 273.876C157.67 274.882 156.26 276.424 155.253 278.503C154.246 280.582 153.742 283.231 153.742 286.45C153.742 291.144 154.783 294.598 156.865 296.811C159.013 299.024 161.901 300.13 165.526 300.13C167.004 300.13 168.313 299.963 169.454 299.627C170.596 299.225 171.502 298.822 172.174 298.42ZM187.08 271.059L172.174 271.16V244.905C172.778 244.704 173.684 244.503 174.893 244.302C176.102 244.101 177.411 244 178.821 244C181.775 244 183.89 244.503 185.166 245.509C186.442 246.515 187.08 248.359 187.08 251.041V271.059Z" fill="#0F1F8F"/>
<defs>
<linearGradient id="paint0_linear_17_157" x1="122.099" y1="0.000258849" x2="122.099" y2="312" gradientUnits="userSpaceOnUse">
<stop/>
<stop offset="1" stop-color="#666666"/>
</linearGradient>
<linearGradient id="paint1_linear_17_157" x1="122.099" y1="0.00037852" x2="122.099" y2="312" gradientUnits="userSpaceOnUse">
<stop/>
<stop offset="1" stop-color="#666666"/>
</linearGradient>
<linearGradient id="paint2_linear_17_157" x1="122.099" y1="-3.25914e-05" x2="122.099" y2="312" gradientUnits="userSpaceOnUse">
<stop/>
<stop offset="1" stop-color="#666666"/>
</linearGradient>
<linearGradient id="paint3_linear_17_157" x1="126.155" y1="193.975" x2="126.155" y2="304.739" gradientUnits="userSpaceOnUse">
<stop/>
<stop offset="1" stop-color="#666666"/>
</linearGradient>
<linearGradient id="paint4_linear_17_157" x1="126.155" y1="193.975" x2="126.155" y2="304.739" gradientUnits="userSpaceOnUse">
<stop/>
<stop offset="1" stop-color="#666666"/>
</linearGradient>
<linearGradient id="paint5_linear_17_157" x1="126.155" y1="193.975" x2="126.155" y2="304.739" gradientUnits="userSpaceOnUse">
<stop/>
<stop offset="1" stop-color="#666666"/>
</linearGradient>
<linearGradient id="paint6_linear_17_157" x1="126.155" y1="193.975" x2="126.155" y2="304.739" gradientUnits="userSpaceOnUse">
<stop/>
<stop offset="1" stop-color="#666666"/>
</linearGradient>
<linearGradient id="paint7_linear_17_157" x1="126.155" y1="193.975" x2="126.155" y2="304.739" gradientUnits="userSpaceOnUse">
<stop/>
<stop offset="1" stop-color="#666666"/>
</linearGradient>
<linearGradient id="paint8_linear_17_157" x1="126.155" y1="193.975" x2="126.155" y2="304.739" gradientUnits="userSpaceOnUse">
<stop/>
<stop offset="1" stop-color="#666666"/>
</linearGradient>
</defs>
</svg>
