<svg width="32" height="31" viewBox="0 0 32 31" fill="none" xmlns="http://www.w3.org/2000/svg">
<path fill-rule="evenodd" clip-rule="evenodd" d="M15.5823 1.30037C14.4285 0.634251 13.007 0.634251 11.8532 1.30037L2.66457 6.60547C1.5108 7.2716 0.800049 8.50265 0.800049 9.83488V20.4451C0.800049 21.7774 1.5108 23.0084 2.66457 23.6746L11.8532 28.9797C13.007 29.6458 14.4285 29.6458 15.5823 28.9797L22.2589 25.1249L26.0403 27.3081C26.2878 27.451 26.5928 27.451 26.8403 27.3081L30.4 25.2528C30.6475 25.1099 30.8 24.8458 30.8 24.56V19.5173C30.8 19.2315 30.6475 18.9674 30.4 18.8245L26.6355 16.6511V9.83488C26.6355 8.50265 25.9247 7.2716 24.771 6.60547L15.5823 1.30037Z" fill="#FF3465"/>
<path fill-rule="evenodd" clip-rule="evenodd" d="M11.4532 0.606772C12.8545 -0.202257 14.5809 -0.202258 15.9822 0.606772L25.1709 5.91188C26.5722 6.72091 27.4354 8.21606 27.4354 9.83415V16.1884L30.7999 18.131C31.295 18.4168 31.5999 18.945 31.5999 19.5166L31.6 24.5593C31.6 25.1309 31.295 25.6591 30.8 25.9449L27.2402 28.0001C26.7452 28.2859 26.1353 28.2859 25.6402 28.0001L22.2589 26.0479L15.9822 29.6717C14.5809 30.4808 12.8545 30.4808 11.4532 29.6717L2.26452 24.3666C0.863229 23.5576 0 22.0625 0 20.4444L2.01166e-06 9.83415C2.01166e-06 8.21606 0.863229 6.72091 2.26452 5.91188L11.4532 0.606772ZM22.2589 25.1241L15.5822 28.9789C14.4284 29.645 13.0069 29.645 11.8532 28.9789L2.66452 23.6738C1.51075 23.0077 0.8 21.7766 0.8 20.4444L0.800002 9.83415C0.800002 8.50188 1.51075 7.27082 2.66452 6.6047L11.8532 1.29959C13.0069 0.633472 14.4284 0.633472 15.5822 1.29959L24.7709 6.6047C25.9247 7.27082 26.6354 8.50188 26.6354 9.83415V16.6503L30.3999 18.8238C30.6475 18.9667 30.7999 19.2308 30.7999 19.5166L30.8 24.5593C30.8 24.8451 30.6475 25.1092 30.4 25.2521L26.8402 27.3073C26.5927 27.4502 26.2877 27.4502 26.0402 27.3073L22.2589 25.1241Z" fill="#0F102C"/>
<path d="M1.65735 10.9033C1.65735 10.0196 2.27772 9.6615 3.04299 10.1033L11.3802 14.9168C12.1455 15.3586 12.7659 16.4332 12.7659 17.3168V26.9439C12.7659 27.8275 12.1455 28.1857 11.3802 27.7439L3.04299 22.9303C2.27772 22.4885 1.65735 21.414 1.65735 20.5303V10.9033Z" fill="#0F102C"/>
<path d="M4.81917 14.7762C4.45298 14.5647 4.15613 14.7361 4.15613 15.159V19.7229C4.15613 20.1458 4.45298 20.6599 4.81917 20.8713C5.18535 21.0828 5.48221 20.9114 5.48221 20.4885V15.9246C5.48221 15.5017 5.18535 14.9876 4.81917 14.7762Z" fill="white"/>
<path d="M9.29402 17.2C8.92783 16.9885 8.63098 17.1599 8.63098 17.5828V22.1467C8.63098 22.5696 8.92783 23.0837 9.29402 23.2951C9.66021 23.5066 9.95704 23.3352 9.95704 22.9123V18.3484C9.95704 17.9255 9.66021 17.4114 9.29402 17.2Z" fill="white"/>
<path d="M12.3467 8.42687C13.0601 8.83876 14.2168 8.83876 14.9302 8.42687C15.6436 8.01497 15.6436 7.34715 14.9302 6.93526C14.2168 6.52336 13.0601 6.52336 12.3467 6.93526C11.6332 7.34715 11.6332 8.01497 12.3467 8.42687Z" fill="#0F102C"/>
<path d="M25.7899 23.1612C25.7899 22.1119 25.0533 20.8359 24.1445 20.3113C23.2358 19.7866 22.4991 20.212 22.4991 21.2613V22.9051C22.4991 23.9544 23.2358 25.2303 24.1445 25.755C25.0533 26.2796 25.7899 25.8543 25.7899 24.805V23.1612Z" fill="#0B2F51" fill-opacity="0.15"/>
</svg>
