<svg width="64" height="64" viewBox="0 0 64 64" fill="none" xmlns="http://www.w3.org/2000/svg">
<path d="M49.2139 41.0589C47.929 44.3027 45.6686 46.3777 42.623 47.1171L42.4564 47.2125C42.4564 47.2125 42.3373 47.2841 42.1709 47.3557C42.1709 48.0949 42.1233 48.5721 42.1233 48.6435C42.1233 48.7151 42.0757 48.7628 42.0281 48.8105C41.8853 48.9059 41.7187 49.0252 41.5523 49.1207C41.4571 49.3352 41.3381 49.5499 41.1952 49.7645C41.7901 51.2672 42.4801 53.7 41.6237 55.298C41.3619 55.775 41.0764 56.2042 40.7432 56.5383L41.005 57.6831H40.9812L41.7663 59.4719H43.4556C44.0505 59.4719 44.5979 59.7103 44.9548 60.1398C45.169 60.402 45.3354 60.879 45.1452 61.2846C45.0262 61.5469 44.7643 61.8809 44.0505 61.9286C43.2654 62 42.6706 62 42.1709 62C41.6713 62 41.2905 62 40.886 61.9525C40.5054 61.9525 40.1246 61.9048 39.6249 61.9048C39.6249 61.9048 39.3869 61.9048 39.2443 61.9286C38.9587 61.9763 38.6256 62 38.34 61.8809C37.769 61.6185 37.6976 61.2846 37.6976 61.0938C37.6976 60.8313 37.8642 60.4498 38.6018 60.1398L39.6725 59.6626L38.8873 57.4922C38.7208 57.5161 38.5542 57.5399 38.3876 57.5399C37.6738 57.5399 36.9363 57.3016 36.2224 56.8244C35.5324 56.3712 33.9859 54.988 32.9864 54.0577C30.8688 54.3679 28.6798 54.3917 26.8715 54.2009C26.6573 54.2009 26.4433 54.1531 26.229 54.1293C25.2536 55.2025 23.9925 56.2281 22.66 56.3474C22.5647 56.3474 22.4459 56.3474 22.3507 56.3474L22.3983 59.6389L23.5166 60.1398C24.3493 60.402 24.7063 60.6645 24.7301 60.9983C24.7301 61.3801 24.2779 61.6423 23.7782 61.8809C23.4928 62 23.1596 61.9763 22.8742 61.9286C22.7314 61.9286 22.6124 61.9048 22.4935 61.9048C22.0175 61.9048 21.6131 61.9048 21.2324 61.9525C20.8278 61.9525 20.4472 62 19.9475 62C19.4479 62 18.8769 62 18.0678 61.9286C17.3777 61.8809 17.0923 61.5469 16.9733 61.2846C16.8067 60.8552 16.9495 60.402 17.1637 60.1398C17.5205 59.7103 18.0678 59.4719 18.6626 59.4719H20.2806V56.0851C19.9237 55.942 19.6145 55.7273 19.3289 55.4889C18.5912 54.821 18.2106 53.7955 18.2106 52.579C18.2106 52.2689 18.2582 51.768 18.3296 51.1956C17.5443 49.9315 16.9971 48.5721 16.6165 47.1887C16.5689 47.1887 16.4975 47.1887 16.4737 47.141C12.5001 43.3963 11.1914 39.5802 12.4763 35.5017C13.547 32.1149 19.8047 27.2254 20.3758 26.7723C20.9944 26.0567 21.5655 25.4604 21.8035 25.222C21.8511 25.1743 21.8987 25.1504 21.9699 25.1504H22.0175C22.0175 24.5542 22.0413 23.9579 22.0651 23.3855C21.8749 23.1469 21.7559 22.8846 21.6845 22.5983C21.4703 21.6443 21.9461 20.6903 22.2079 20.2371C20.804 19.7124 20.471 18.7822 20.3996 18.2336C20.2568 17.1842 20.8516 16.1824 21.4703 15.7531C21.9461 15.4431 22.3983 15.3715 22.779 15.4192C22.779 15.3954 22.7552 15.3477 22.7314 15.3238C22.5648 14.8468 22.5886 14.3459 22.8028 13.8689C22.9456 13.5588 23.1596 13.2965 23.4452 13.1295C23.1596 13.1295 22.9694 13.0341 22.9694 12.8195C22.9694 12.3663 23.3738 12.0085 23.9211 11.7462C24.6349 9.86194 25.5628 8.57399 26.6811 7.85845C26.6811 7.83462 26.6811 7.7869 26.6811 7.7392C26.6811 7.71536 26.6335 7.66764 26.6097 7.6438C26.5861 7.5961 26.5623 7.54839 26.5385 7.50069C26.5147 7.45299 26.4909 7.40529 26.4671 7.35759C26.4433 7.30989 26.4195 7.23834 26.3957 7.16678C26.3957 7.14292 26.3719 7.09522 26.3481 7.07138C26.3481 6.99983 26.3004 6.92827 26.3004 6.85671C26.3004 6.83287 26.3005 6.78515 26.2766 6.76131C26.2766 6.68976 26.2528 6.6182 26.229 6.54666C26.229 6.49894 26.229 6.4751 26.229 6.42741C26.229 6.35585 26.229 6.28429 26.229 6.21273C26.229 6.16504 26.229 6.11734 26.229 6.06964C26.229 5.99808 26.229 5.95038 26.229 5.87883C26.229 5.83113 26.229 5.75957 26.229 5.71187C26.229 5.66417 26.229 5.59262 26.229 5.54492C26.229 5.52106 26.229 5.49722 26.229 5.47336C26.229 5.4495 26.229 5.4018 26.229 5.37797C26.229 5.33025 26.229 5.28255 26.2528 5.23485C26.2528 5.21101 26.2528 5.16329 26.2766 5.13945C26.2766 5.0679 26.3243 4.9725 26.3481 4.90094C26.3481 4.82939 26.3957 4.75783 26.4195 4.68629C26.4433 4.61473 26.4671 4.54318 26.5147 4.49548C26.5623 4.42392 26.5861 4.32852 26.6335 4.25697C26.6573 4.20927 26.6811 4.16157 26.7049 4.11385C26.7525 4.01845 26.8001 3.9469 26.8715 3.8515C26.8953 3.8038 26.9191 3.77995 26.9429 3.75609C27.0143 3.66069 27.0619 3.58914 27.1333 3.49373C27.1571 3.46988 27.1807 3.44603 27.2045 3.39833C27.2759 3.32678 27.3473 3.23137 27.4187 3.15982C27.4425 3.13597 27.4901 3.08827 27.5377 3.06442C27.6092 2.99286 27.6806 2.92131 27.752 2.87361C27.7994 2.82591 27.8708 2.80206 27.9184 2.75436C27.9898 2.70665 28.0374 2.65895 28.1088 2.6351C28.2278 2.56355 28.3466 2.49199 28.4656 2.44429C30.4644 1.53796 31.9633 2.18193 32.9152 2.92131C32.939 2.92131 32.9864 2.92131 33.0102 2.92131C34.3427 3.23137 35.2946 4.04231 35.7228 5.21101L35.7942 5.4018C36.27 6.04578 36.4841 6.78515 36.4129 7.54839C36.5793 7.88231 36.6507 8.19236 36.6507 8.40703C36.6745 8.40703 36.6983 8.40703 36.7459 8.40703C36.7935 8.40703 36.8411 8.45473 36.8411 8.50243C37.0315 9.26566 36.9601 10.005 36.6507 10.7206C36.3653 11.3884 35.9606 12.1278 35.461 12.9625C35.8418 14.2505 36.0558 15.6816 36.1986 17.1126C37.0315 15.4908 38.4828 13.5111 40.6718 13.2965C41.5761 13.2011 42.2661 13.4634 42.742 14.012C43.6937 15.133 43.432 17.2796 43.2654 18.2098C44.8595 17.8997 46.073 18.1621 46.8821 18.9968C48.714 20.8811 47.81 25.0311 47.5958 25.9613C50.9984 28.7043 49.5231 32.4965 49.4993 32.5203L49.2377 32.401V32.8066L49.3327 33.0927L48.5 33.379C49.0235 33.8799 49.4041 34.2614 49.4993 34.4284C50.0466 35.3108 49.999 36.098 49.999 36.1457C49.999 36.2411 49.9513 38.507 48.9759 41.0112L49.2139 41.0589Z" fill="white"/>
</svg>
